%TF.GenerationSoftware,KiCad,Pcbnew,5.1.5+dfsg1-2build2*%
%TF.CreationDate,2021-04-17T13:08:46-03:00*%
%TF.ProjectId,miniShieldESP32,6d696e69-5368-4696-956c-644553503332,rev?*%
%TF.SameCoordinates,Original*%
%TF.FileFunction,Soldermask,Bot*%
%TF.FilePolarity,Negative*%
%FSLAX46Y46*%
G04 Gerber Fmt 4.6, Leading zero omitted, Abs format (unit mm)*
G04 Created by KiCad (PCBNEW 5.1.5+dfsg1-2build2) date 2021-04-17 13:08:46*
%MOMM*%
%LPD*%
G04 APERTURE LIST*
%ADD10C,3.200000*%
%ADD11C,1.998980*%
%ADD12C,1.560000*%
%ADD13R,1.560000X1.560000*%
%ADD14O,3.000000X4.000000*%
%ADD15O,1.500000X3.000000*%
%ADD16O,1.600000X1.600000*%
%ADD17C,1.600000*%
%ADD18O,2.524000X1.524000*%
%ADD19O,2.190000X1.740000*%
%ADD20C,0.100000*%
%ADD21R,1.600000X1.600000*%
%ADD22R,1.500000X1.500000*%
%ADD23C,1.500000*%
%ADD24O,2.400000X2.400000*%
%ADD25R,2.400000X2.400000*%
%ADD26R,1.524000X2.524000*%
%ADD27O,1.524000X2.524000*%
%ADD28O,2.000000X1.905000*%
%ADD29R,2.000000X1.905000*%
%ADD30C,1.800000*%
%ADD31R,1.800000X1.800000*%
%ADD32C,2.000000*%
%ADD33O,2.000000X3.000000*%
G04 APERTURE END LIST*
D10*
%TO.C,REF\002A\002A*%
X146814360Y-100470000D03*
%TD*%
%TO.C,REF\002A\002A*%
X127814360Y-54470000D03*
%TD*%
D11*
%TO.C,R15*%
X153785000Y-55350000D03*
X158824360Y-55350000D03*
%TD*%
D12*
%TO.C,U1*%
X122795000Y-49360000D03*
X122795000Y-51900000D03*
X122795000Y-54440000D03*
X122795000Y-56980000D03*
X122795000Y-59520000D03*
X122795000Y-62060000D03*
X122795000Y-64600000D03*
X122795000Y-67140000D03*
X122795000Y-69680000D03*
X122795000Y-72220000D03*
X122795000Y-74760000D03*
X122795000Y-77300000D03*
X122795000Y-79840000D03*
X122795000Y-82380000D03*
X122795000Y-84920000D03*
X122795000Y-87460000D03*
X122795000Y-90000000D03*
X122795000Y-92540000D03*
X122795000Y-95080000D03*
X148195000Y-51900000D03*
X148195000Y-54440000D03*
X148195000Y-56980000D03*
X148195000Y-59520000D03*
X148195000Y-62060000D03*
X148195000Y-64600000D03*
X148195000Y-67140000D03*
X148195000Y-69680000D03*
X148195000Y-72220000D03*
X148195000Y-74760000D03*
X148195000Y-77300000D03*
X148195000Y-79840000D03*
X148195000Y-82380000D03*
X148195000Y-84920000D03*
X148195000Y-87460000D03*
X148195000Y-90000000D03*
X148195000Y-49360000D03*
X148195000Y-92540000D03*
D13*
X148195000Y-95080000D03*
%TD*%
D14*
%TO.C,J2*%
X111855000Y-52280000D03*
X116855000Y-52280000D03*
%TD*%
%TO.C,J1*%
X101665000Y-52275000D03*
X106665000Y-52275000D03*
%TD*%
D15*
%TO.C,SW3*%
X178585000Y-70720000D03*
X176085000Y-70720000D03*
X173585000Y-70720000D03*
X173585000Y-76720000D03*
X176085000Y-76720000D03*
X178585000Y-76720000D03*
%TD*%
D11*
%TO.C,R13*%
X119845000Y-98290000D03*
X119845000Y-103329360D03*
%TD*%
D16*
%TO.C,R14*%
X127545000Y-93170000D03*
D17*
X127545000Y-103330000D03*
%TD*%
D16*
%TO.C,R12*%
X144545000Y-84970000D03*
D17*
X134385000Y-84970000D03*
%TD*%
D18*
%TO.C,R11*%
X154795000Y-89280000D03*
X154795000Y-85470000D03*
%TD*%
D19*
%TO.C,J5*%
X114365000Y-103445000D03*
X114365000Y-100905000D03*
X114365000Y-98365000D03*
D20*
G36*
X115234505Y-94956204D02*
G01*
X115258773Y-94959804D01*
X115282572Y-94965765D01*
X115305671Y-94974030D01*
X115327850Y-94984520D01*
X115348893Y-94997132D01*
X115368599Y-95011747D01*
X115386777Y-95028223D01*
X115403253Y-95046401D01*
X115417868Y-95066107D01*
X115430480Y-95087150D01*
X115440970Y-95109329D01*
X115449235Y-95132428D01*
X115455196Y-95156227D01*
X115458796Y-95180495D01*
X115460000Y-95204999D01*
X115460000Y-96445001D01*
X115458796Y-96469505D01*
X115455196Y-96493773D01*
X115449235Y-96517572D01*
X115440970Y-96540671D01*
X115430480Y-96562850D01*
X115417868Y-96583893D01*
X115403253Y-96603599D01*
X115386777Y-96621777D01*
X115368599Y-96638253D01*
X115348893Y-96652868D01*
X115327850Y-96665480D01*
X115305671Y-96675970D01*
X115282572Y-96684235D01*
X115258773Y-96690196D01*
X115234505Y-96693796D01*
X115210001Y-96695000D01*
X113519999Y-96695000D01*
X113495495Y-96693796D01*
X113471227Y-96690196D01*
X113447428Y-96684235D01*
X113424329Y-96675970D01*
X113402150Y-96665480D01*
X113381107Y-96652868D01*
X113361401Y-96638253D01*
X113343223Y-96621777D01*
X113326747Y-96603599D01*
X113312132Y-96583893D01*
X113299520Y-96562850D01*
X113289030Y-96540671D01*
X113280765Y-96517572D01*
X113274804Y-96493773D01*
X113271204Y-96469505D01*
X113270000Y-96445001D01*
X113270000Y-95204999D01*
X113271204Y-95180495D01*
X113274804Y-95156227D01*
X113280765Y-95132428D01*
X113289030Y-95109329D01*
X113299520Y-95087150D01*
X113312132Y-95066107D01*
X113326747Y-95046401D01*
X113343223Y-95028223D01*
X113361401Y-95011747D01*
X113381107Y-94997132D01*
X113402150Y-94984520D01*
X113424329Y-94974030D01*
X113447428Y-94965765D01*
X113471227Y-94959804D01*
X113495495Y-94956204D01*
X113519999Y-94955000D01*
X115210001Y-94955000D01*
X115234505Y-94956204D01*
G37*
%TD*%
D19*
%TO.C,J4*%
X104865000Y-103445000D03*
X104865000Y-100905000D03*
X104865000Y-98365000D03*
D20*
G36*
X105734505Y-94956204D02*
G01*
X105758773Y-94959804D01*
X105782572Y-94965765D01*
X105805671Y-94974030D01*
X105827850Y-94984520D01*
X105848893Y-94997132D01*
X105868599Y-95011747D01*
X105886777Y-95028223D01*
X105903253Y-95046401D01*
X105917868Y-95066107D01*
X105930480Y-95087150D01*
X105940970Y-95109329D01*
X105949235Y-95132428D01*
X105955196Y-95156227D01*
X105958796Y-95180495D01*
X105960000Y-95204999D01*
X105960000Y-96445001D01*
X105958796Y-96469505D01*
X105955196Y-96493773D01*
X105949235Y-96517572D01*
X105940970Y-96540671D01*
X105930480Y-96562850D01*
X105917868Y-96583893D01*
X105903253Y-96603599D01*
X105886777Y-96621777D01*
X105868599Y-96638253D01*
X105848893Y-96652868D01*
X105827850Y-96665480D01*
X105805671Y-96675970D01*
X105782572Y-96684235D01*
X105758773Y-96690196D01*
X105734505Y-96693796D01*
X105710001Y-96695000D01*
X104019999Y-96695000D01*
X103995495Y-96693796D01*
X103971227Y-96690196D01*
X103947428Y-96684235D01*
X103924329Y-96675970D01*
X103902150Y-96665480D01*
X103881107Y-96652868D01*
X103861401Y-96638253D01*
X103843223Y-96621777D01*
X103826747Y-96603599D01*
X103812132Y-96583893D01*
X103799520Y-96562850D01*
X103789030Y-96540671D01*
X103780765Y-96517572D01*
X103774804Y-96493773D01*
X103771204Y-96469505D01*
X103770000Y-96445001D01*
X103770000Y-95204999D01*
X103771204Y-95180495D01*
X103774804Y-95156227D01*
X103780765Y-95132428D01*
X103789030Y-95109329D01*
X103799520Y-95087150D01*
X103812132Y-95066107D01*
X103826747Y-95046401D01*
X103843223Y-95028223D01*
X103861401Y-95011747D01*
X103881107Y-94997132D01*
X103902150Y-94984520D01*
X103924329Y-94974030D01*
X103947428Y-94965765D01*
X103971227Y-94959804D01*
X103995495Y-94956204D01*
X104019999Y-94955000D01*
X105710001Y-94955000D01*
X105734505Y-94956204D01*
G37*
%TD*%
D19*
%TO.C,J3*%
X95365000Y-103445000D03*
X95365000Y-100905000D03*
X95365000Y-98365000D03*
D20*
G36*
X96234505Y-94956204D02*
G01*
X96258773Y-94959804D01*
X96282572Y-94965765D01*
X96305671Y-94974030D01*
X96327850Y-94984520D01*
X96348893Y-94997132D01*
X96368599Y-95011747D01*
X96386777Y-95028223D01*
X96403253Y-95046401D01*
X96417868Y-95066107D01*
X96430480Y-95087150D01*
X96440970Y-95109329D01*
X96449235Y-95132428D01*
X96455196Y-95156227D01*
X96458796Y-95180495D01*
X96460000Y-95204999D01*
X96460000Y-96445001D01*
X96458796Y-96469505D01*
X96455196Y-96493773D01*
X96449235Y-96517572D01*
X96440970Y-96540671D01*
X96430480Y-96562850D01*
X96417868Y-96583893D01*
X96403253Y-96603599D01*
X96386777Y-96621777D01*
X96368599Y-96638253D01*
X96348893Y-96652868D01*
X96327850Y-96665480D01*
X96305671Y-96675970D01*
X96282572Y-96684235D01*
X96258773Y-96690196D01*
X96234505Y-96693796D01*
X96210001Y-96695000D01*
X94519999Y-96695000D01*
X94495495Y-96693796D01*
X94471227Y-96690196D01*
X94447428Y-96684235D01*
X94424329Y-96675970D01*
X94402150Y-96665480D01*
X94381107Y-96652868D01*
X94361401Y-96638253D01*
X94343223Y-96621777D01*
X94326747Y-96603599D01*
X94312132Y-96583893D01*
X94299520Y-96562850D01*
X94289030Y-96540671D01*
X94280765Y-96517572D01*
X94274804Y-96493773D01*
X94271204Y-96469505D01*
X94270000Y-96445001D01*
X94270000Y-95204999D01*
X94271204Y-95180495D01*
X94274804Y-95156227D01*
X94280765Y-95132428D01*
X94289030Y-95109329D01*
X94299520Y-95087150D01*
X94312132Y-95066107D01*
X94326747Y-95046401D01*
X94343223Y-95028223D01*
X94361401Y-95011747D01*
X94381107Y-94997132D01*
X94402150Y-94984520D01*
X94424329Y-94974030D01*
X94447428Y-94965765D01*
X94471227Y-94959804D01*
X94495495Y-94956204D01*
X94519999Y-94955000D01*
X96210001Y-94955000D01*
X96234505Y-94956204D01*
G37*
%TD*%
D17*
%TO.C,C1*%
X93365000Y-67325000D03*
D21*
X95865000Y-67325000D03*
%TD*%
D22*
%TO.C,Q5*%
X108165000Y-65865000D03*
D23*
X108165000Y-60785000D03*
X108165000Y-63325000D03*
%TD*%
D22*
%TO.C,Q4*%
X115165000Y-65865000D03*
D23*
X115165000Y-60785000D03*
X115165000Y-63325000D03*
%TD*%
D24*
%TO.C,D4*%
X101665000Y-61575000D03*
D25*
X101665000Y-65385000D03*
%TD*%
D11*
%TO.C,R10*%
X112123080Y-79470000D03*
X107083720Y-79470000D03*
%TD*%
%TO.C,R9*%
X112120520Y-75970000D03*
X107081160Y-75970000D03*
%TD*%
%TO.C,R8*%
X112123720Y-82970000D03*
X107084360Y-82970000D03*
%TD*%
%TO.C,R7*%
X112084360Y-86470000D03*
X107045000Y-86470000D03*
%TD*%
%TO.C,R6*%
X112123080Y-91970000D03*
X107083720Y-91970000D03*
%TD*%
%TO.C,R5*%
X112077960Y-72470000D03*
X107038600Y-72470000D03*
%TD*%
%TO.C,R4*%
X109584360Y-68970000D03*
X104545000Y-68970000D03*
%TD*%
D26*
%TO.C,AFF1*%
X93545000Y-90970000D03*
D27*
X96085000Y-90970000D03*
X98625000Y-90970000D03*
X101165000Y-90970000D03*
X103705000Y-90970000D03*
X103705000Y-75730000D03*
X101165000Y-75730000D03*
X98625000Y-75730000D03*
X96085000Y-75730000D03*
X93545000Y-75730000D03*
%TD*%
D28*
%TO.C,U3*%
X95865000Y-55825000D03*
X95865000Y-58365000D03*
D29*
X95865000Y-60905000D03*
%TD*%
D17*
%TO.C,C2*%
X93365000Y-49325000D03*
D21*
X95865000Y-49325000D03*
%TD*%
D11*
%TO.C,R2*%
X166965000Y-56970000D03*
X172004360Y-56970000D03*
%TD*%
%TO.C,R1*%
X166965000Y-62970000D03*
X172004360Y-62970000D03*
%TD*%
D30*
%TO.C,D3*%
X178405000Y-50970000D03*
D31*
X175865000Y-50970000D03*
%TD*%
D30*
%TO.C,D2*%
X178405000Y-56970000D03*
D31*
X175865000Y-56970000D03*
%TD*%
D30*
%TO.C,D1*%
X178405000Y-62970000D03*
D31*
X175865000Y-62970000D03*
%TD*%
D22*
%TO.C,Q2*%
X160045000Y-72365000D03*
D23*
X165125000Y-72365000D03*
X162585000Y-72365000D03*
%TD*%
D11*
%TO.C,R3*%
X166968200Y-50970000D03*
X172007560Y-50970000D03*
%TD*%
D23*
%TO.C,U2*%
X153925000Y-48850000D03*
X156465000Y-48850000D03*
X159005000Y-48850000D03*
D22*
X161545000Y-48850000D03*
%TD*%
D32*
%TO.C,SW2*%
X179545000Y-87470000D03*
X173045000Y-87470000D03*
%TD*%
%TO.C,SW1*%
X179545000Y-100470000D03*
X173045000Y-100470000D03*
%TD*%
D33*
%TO.C,RV1*%
X160043740Y-99470000D03*
X155042480Y-99470000D03*
X165045000Y-99470000D03*
%TD*%
D22*
%TO.C,Q3*%
X153005000Y-67970000D03*
D23*
X158085000Y-67970000D03*
X155545000Y-67970000D03*
%TD*%
D22*
%TO.C,Q1*%
X162545000Y-80010000D03*
D23*
X167625000Y-80010000D03*
X165085000Y-80010000D03*
%TD*%
M02*
